<?xml version="1.0" encoding="UTF-8"?>
<svg id="Layer_2" data-name="Layer 2" xmlns="http://www.w3.org/2000/svg" viewBox="0 0 1040.8 284.45">
  <defs>
    <style>
      .cls-1 {
        fill: #282828;
        stroke-width: 0px;
      }
    </style>
  </defs>
  <g id="Layer_1-2" data-name="Layer 1">
    <g>
      <g>
        <path class="cls-1" d="m493.21,116.19l-9.57,26.04h-5.92l27.65-75.31h6.89l28.83,75.31h-6.35l-9.79-26.04h-31.74Zm29.8-5.38c-8.39-22.38-12.69-33.14-14.2-38.19h-.11c-1.83,5.7-6.67,19.04-13.45,38.19h27.76Z"/>
        <path class="cls-1" d="m625.01,107.58c0-14.74.11-28.83.43-36.37h-.32c-3.01,10.12-18.29,47.24-27.87,71.01h-5.7c-7.21-18.4-23.03-59.71-26.47-71.12h-.21c.54,8.61.75,26.14.75,39.05v32.06h-5.81v-75.31h8.71c10.33,25.82,23.35,59.6,26.14,68.1h.22c1.72-5.48,16.78-43.04,27.33-68.1h8.61v75.31h-5.81v-34.64Z"/>
        <path class="cls-1" d="m674.7,142.23v-28.3c0-.64-.22-1.4-.43-1.72l-26.9-45.29h6.78c7.53,12.8,20.66,35.07,23.89,40.67,3.23-5.59,16.46-27.65,24.53-40.67h6.46l-28.08,45.72c-.21.43-.32.86-.32,1.61v27.98h-5.92Z"/>
        <path class="cls-1" d="m730.75,107.04v35.18h-5.92v-75.31h27c14.85,0,22.7,7.96,22.7,19.79,0,9.58-5.7,15.82-14.09,17.65,7.75,1.83,12.91,6.89,12.91,19.69v2.91c0,5.27-.43,12.37.97,15.28h-5.92c-1.4-3.23-1.07-9.25-1.07-15.71v-1.94c0-12.37-3.66-17.53-18.08-17.53h-18.51Zm0-5.38h18.18c13.23,0,19.36-4.95,19.36-14.85,0-9.25-6.03-14.52-17.75-14.52h-19.8v29.37Z"/>
        <path class="cls-1" d="m842.53,105.21h-38.41v31.63h42.07l-.86,5.38h-47.02v-75.31h46.16v5.38h-40.35v27.54h38.41v5.38Z"/>
        <path class="cls-1" d="m866.41,66.91h5.81v69.93h40.45l-1.08,5.38h-45.19v-75.31Z"/>
        <path class="cls-1" d="m929.67,66.91h5.81v69.93h40.45l-1.07,5.38h-45.19v-75.31Z"/>
        <path class="cls-1" d="m1037.15,105.21h-38.41v31.63h42.07l-.86,5.38h-47.02v-75.31h46.16v5.38h-40.35v27.54h38.41v5.38Z"/>
      </g>
      <path class="cls-1" d="m399.81,121.86c-13.72-16.75-34.92-24.57-55.26-20.34-4.36.91-8.52,2.32-12.32,4.22-.92.42-1.9.99-2.82,1.48l-11.83-29.43-27.1-70.33c-1.76-4.51-5.98-7.39-10.77-7.46h-.21c-.92,0-1.9.07-2.75.28-3.73.92-6.76,3.52-8.17,7.18l-23.83,61.76c-.16.42-.75.42-.91,0l-23.48-60.7c-1.97-5.14-6.83-8.52-12.32-8.52h-.07c-5.56,0-10.42,3.31-12.39,8.52l-22,56.83c-.16.42-.75.41-.91,0l-21.16-54.79c-2.11-5.35-6.62-9.15-12.11-10.28-.99-.14-1.97-.28-2.96-.28h-.35c-6.9,0-13.02,4.15-15.49,10.56l-36.75,95.18-2.81,7.25c-7.39-.56-14.15-.14-20.35.92-12.25,2.11-22.25,6.97-30.06,12.39-3.03,2.04-5.63,4.22-8.03,6.34-9.86,8.73-16.9,20.42-20.13,32.88-.21.77-.42,1.48-.56,2.25-2.89,13.02-2.32,24.15.28,33.44,4.86,17.53,16.61,28.86,25.13,34.99,1.62,1.2,3.38,1.97,5.21,2.46,1.2.28,2.46.49,3.73.49,1.48,0,2.96-.21,4.44-.7,2.67-.77,5.07-2.25,6.9-4.22,1.27-1.41,2.32-3.1,3.03-4.93l.28-.77,38.71-100.2c.21-.12.35-.2.56-.32,5.29,1.07,10.8,2.73,16.41,4.99,8.1,3.1,16.26,6.55,24.92,10.63,2.97,1.42,6,2.83,9.15,4.37.23.11.34.39.25.63l-14.61,36.32-14.78,37.03-21.33,53.22c-1.41,3.45.28,7.39,3.73,8.8,3.38,1.34,7.32-.28,8.73-3.66,0,0,.07-.07.07-.14l21.54-53.71,3.59-8.94c.07-.14.07-.28.14-.42l39.92-99.54,5.21-13.45,29.53,76.38c2.15,5.56,10.01,5.61,12.23.08l29.27-73,4.01,10,65.26,162.76c1.48,3.38,5.35,5,8.73,3.66,3.52-1.41,5.21-5.35,3.8-8.8l-20.63-51.47c-.19-.47.33-.85.72-.54,6.1,4.86,15.06,7.93,21.31,8.78,4.08.63,8.17.91,12.11.91,8.94,0,17.53-1.48,25.69-4.36,1.62-.56,3.31-1.2,4.93-1.9v-.07h.07l4.08-1.76v-.14c1.06-.56,2.18-1.13,3.24-1.76,4.86-2.75,9.43-6.05,13.73-9.86,1.97-1.83,3.87-3.73,5.63-5.7,7.39-8.45,12.67-18.73,15.07-29.5.91-4.29,1.55-8.45,1.76-12.32,1.2-20.2-6.48-34.64-13.87-43.65Zm-333.54,29.36l-22.74,58.85-4.93,12.81v.07c-.78,1.97-3.17,2.6-4.86,1.34-3.8-2.82-9.92-8.45-14.43-16.97-4.72-8.87-7.6-20.98-4.15-36.61.28-1.34.56-2.6.99-3.87,2.75-9.15,8.17-17.6,15.49-24.15,8.73-7.81,22.88-16.4,42.8-16.4h1.48l-9.65,24.92Zm98.2-62.3l-9.15,23.72-9.22,23.02c-3.03-1.48-5.98-2.89-8.8-4.22-9.01-4.22-17.46-7.88-25.77-11.05-5.49-2.16-10.88-3.93-16.17-5.07-.16-.31-.22-.41-.38-.72L133.22,15.42c.7-1.69,2.04-1.9,2.89-1.9.35,0,.92.07,1.41.35.56.21,1.06.7,1.41,1.55l23.65,61.32,3.31,8.59-1.41,3.59Zm44.88,69.11c-.16.41-.75.41-.91,0l-27.99-72.48-.07-.21,27.59-71.45.07.21,27.59,71.45,1.34,3.59-27.63,68.9Zm148.74,58.61c-4.88,1.45-9.7,2.24-14.46,2.58-23.37,1.34-44.84-12.74-53.85-34.28-.14-.21-.21-.49-.35-.77l-33.3-83.07-4.58-11.9.07-.28,27.42-71.05c.16-.42.75-.42.91,0l25.03,64.86,13.3,33.16,5.07,12.67,35.06,87.41c.11.27-.05.59-.33.67Zm41.93-49.79c-.28,2.67-.71,5.35-1.34,8.03-2.32,10.63-8.17,20.63-16.54,28.02-2.96,2.75-6.2,5.14-9.57,7.18-.49.35-1.06.63-1.55.92l-36.31-90.64c-.09-.22,0-.48.19-.61,3.65-2.35,7.82-4.03,12.39-4.98,2.68-.56,5.42-.84,8.1-.84,10.98,0,21.75,4.36,30.06,12.39,1.41,1.27,2.67,2.67,3.87,4.15,8.45,10.35,12.04,22.53,10.7,36.4Z"/>
      <g>
        <g>
          <path class="cls-1" d="m526.9,211.36c.15-.29.35-.47.6-.52.26-.06.5-.03.74.08s.43.28.58.49c.15.22.16.48.06.77-.48,1.21-1.25,2.26-2.31,3.16-1.06.9-2.13,1.71-3.19,2.44-1.32.88-2.67,1.67-4.07,2.36-1.39.7-2.82,1.36-4.28,1.98h-.06c.59.84,1.04,1.74,1.37,2.69.33.95.47,1.96.44,3.02-.07,1.36-.39,2.65-.96,3.87-.57,1.23-1.33,2.32-2.28,3.27-.99,1.03-2.11,1.87-3.35,2.53-1.24.66-2.53,1.23-3.85,1.7-1.28.44-2.59.82-3.93,1.13-1.34.31-2.68.5-4.04.58-.95.07-2.06.04-3.32-.11-1.26-.15-2.43-.47-3.49-.96-1.06-.49-1.9-1.18-2.5-2.06s-.74-2-.41-3.35c.26-1.02.71-1.96,1.37-2.8.66-.84,1.42-1.62,2.28-2.33.86-.71,1.78-1.36,2.75-1.93.97-.57,1.88-1.07,2.72-1.51,1.83-.95,3.68-1.79,5.55-2.53,1.87-.73,3.77-1.46,5.71-2.2-.44-.33-.89-.64-1.35-.93-.46-.29-.93-.59-1.4-.88l-8.08-5.06c-1.1-.69-2.22-1.42-3.35-2.17-1.14-.75-2.18-1.59-3.13-2.53-.95-.93-1.75-1.97-2.39-3.1-.64-1.13-1-2.42-1.07-3.84-.07-1.47.16-2.82.69-4.07.53-1.24,1.25-2.37,2.17-3.38.92-1.01,1.97-1.9,3.16-2.69,1.19-.79,2.39-1.46,3.6-2.01,1.28-.55,2.62-1.03,4.01-1.45,1.39-.42,2.8-.71,4.23-.85,1.43-.15,2.85-.13,4.26.05,1.41.18,2.77.6,4.09,1.26,1.1.51,2.09,1.2,2.97,2.06.88.86,1.6,1.83,2.17,2.91.57,1.08.92,2.22,1.07,3.41.15,1.19.02,2.39-.38,3.6-.11.33-.28.55-.52.66-.24.11-.48.13-.71.06-.24-.07-.45-.22-.63-.44-.18-.22-.24-.5-.16-.83.29-1.32.15-2.61-.44-3.87-.59-1.26-1.36-2.33-2.31-3.22-1.06-.99-2.29-1.66-3.68-2.03-1.39-.37-2.8-.51-4.23-.44-1.65.08-3.25.36-4.81.85-1.56.49-3.05,1.11-4.48,1.84-1.28.66-2.48,1.47-3.6,2.42-1.12.95-1.93,2.12-2.45,3.52-.51,1.39-.57,2.64-.16,3.73.4,1.1,1.03,2.09,1.87,2.97.84.88,1.82,1.68,2.94,2.42,1.12.73,2.17,1.39,3.16,1.98l8.08,5.06c.84.51,1.67,1.06,2.47,1.65.81.59,1.58,1.23,2.31,1.92.07-.07.16-.12.28-.14.11-.02.2-.05.27-.08,1.36-.51,2.68-1.07,3.98-1.68,1.3-.6,2.59-1.27,3.87-2.01.48-.26.99-.54,1.54-.85.55-.31,1.08-.65,1.59-1.02.51-.37.99-.76,1.43-1.18.44-.42.77-.89.99-1.4Zm-15.05,12.42c-.07-.04-.12-.07-.14-.11-.02-.03-.07-.09-.14-.16-2.42.95-4.82,1.9-7.2,2.83-2.38.94-4.71,2.06-6.98,3.38-.84.51-1.67,1.06-2.47,1.65-.81.59-1.52,1.28-2.14,2.09-.4.51-.71,1.04-.93,1.59-.22.55-.07,1.02.44,1.43.95.77,2.1,1.18,3.43,1.24,1.34.06,2.55,0,3.65-.19,1.32-.18,2.64-.46,3.96-.82,1.32-.37,2.58-.84,3.79-1.43,1.17-.55,2.25-1.23,3.24-2.03.99-.81,1.76-1.81,2.31-3.02.51-1.1.69-2.21.52-3.32-.16-1.12-.61-2.15-1.35-3.1Z"/>
          <path class="cls-1" d="m557.18,210.81c.4-.14.73-.05.99.3s.29.71.11,1.07c-.4.81-.98,1.51-1.73,2.12-.75.6-1.47,1.16-2.17,1.68-1.03.81-2.07,1.59-3.13,2.36s-2.14,1.5-3.24,2.2c-.99.66-2,1.3-3.02,1.92-1.03.62-2.09,1.18-3.19,1.68-1.1.49-2.22.92-3.35,1.26s-2.29.56-3.46.63c-1.25.11-2.45-.02-3.6-.39-1.15-.37-2.17-.92-3.05-1.68-.88-.75-1.59-1.66-2.14-2.72-.55-1.06-.82-2.25-.82-3.57-.04-.99.08-1.97.36-2.94.28-.97.6-1.93.96-2.89.4-.91.85-1.79,1.35-2.61.49-.83,1.09-1.6,1.79-2.34.59-.58,1.27-1.11,2.06-1.57.79-.46,1.61-.79,2.47-.99s1.72-.26,2.58-.16c.86.09,1.68.41,2.44.96.81.59,1.31,1.26,1.51,2,.2.75.2,1.51,0,2.28-.2.77-.57,1.5-1.1,2.2-.53.69-1.15,1.26-1.84,1.7-1.21.73-2.54,1.11-3.98,1.13-1.45.02-2.77-.3-3.98-.96-.26.62-.47,1.25-.63,1.89-.17.64-.25,1.27-.25,1.9,0,.58.09,1.12.28,1.59.18.48.44.95.77,1.43.07.18.27.41.6.66,0,.11.09.2.28.28.04,0,.08.03.14.08.06.05.1.08.14.08.22.15.39.24.49.28.04.04.07.05.11.05,0,.04.02.06.05.06.18.07.35.13.49.16s.31.07.49.11c.07,0,.13.01.16.03.04.02.09.03.17.03s.15,0,.25.03c.09.02.17.03.25.03h.58c.2,0,.41-.02.63-.05h.47s.17-.04.47-.11l1.21-.22c.44-.11.88-.23,1.32-.36.44-.13.86-.27,1.26-.41,1.87-.62,3.64-1.42,5.3-2.39,1.67-.97,3.3-1.98,4.92-3.05l4.23-2.97c.48-.37.95-.71,1.43-1.05.47-.33,1.01-.58,1.59-.77Zm-20.49-3.74c-.77-.07-1.52.08-2.25.47s-1.36.83-1.87,1.35c-.48.48-.81.9-.99,1.26s-.42.86-.71,1.48c.66.22,1.34.37,2.03.47.7.09,1.37.09,2.03-.03.66-.11,1.26-.33,1.81-.66.55-.33,1.01-.81,1.37-1.43.44-.73.53-1.38.28-1.95-.26-.57-.83-.89-1.7-.96Z"/>
          <path class="cls-1" d="m603.71,211.03c.51-.33.99-.41,1.43-.25.44.17.78.45,1.02.85.24.4.32.86.25,1.37-.07.51-.35.94-.82,1.26-2.56,1.76-5.19,3.43-7.89,5-2.69,1.58-5.52,2.86-8.49,3.85-1.28.4-2.63.75-4.04,1.04-1.41.29-2.81.48-4.2.55-1.32.07-2.6-.16-3.85-.69-1.25-.53-2.2-1.38-2.86-2.55-.62-1.1-.91-2.24-.85-3.43.06-1.19.23-2.37.52-3.54.11-.4.22-.81.33-1.24.11-.42.24-.83.38-1.24.07-.22.14-.47.19-.77.06-.29.12-.57.19-.83l-1.54.83c-2.34,1.32-4.58,2.78-6.7,4.37-2.13,1.59-4.18,3.31-6.15,5.13-.44.41-.91.75-1.4,1.05-.49.29-1.07.37-1.73.22-.48-.14-.9-.39-1.26-.71-.37-.33-.62-.73-.77-1.21-.18-.59-.18-1.21,0-1.87.18-.66.37-1.28.55-1.87.18-.66.37-1.31.55-1.95.18-.64.37-1.29.55-1.95.07-.26.22-.44.44-.55.22-.11.44-.16.66-.14.22.02.42.12.6.3s.28.4.28.66c0,1.5-.13,2.95-.38,4.34,0,.07-.02.26-.06.55s-.07.59-.11.88c.84-.99,1.79-1.91,2.86-2.75,1.06-.84,2.11-1.65,3.13-2.42.99-.73,1.98-1.45,2.97-2.14.99-.7,2.01-1.36,3.08-1.98.51-.33,1.04-.66,1.59-.99.55-.33,1.12-.64,1.7-.93.51-.26,1.02-.43,1.51-.52s1.02,0,1.57.3c.66.33,1.09.75,1.29,1.26.2.51.28,1.07.25,1.68-.04.6-.14,1.21-.3,1.81-.16.6-.3,1.18-.41,1.73-.11.44-.24.92-.38,1.45-.15.53-.27,1.06-.36,1.59-.09.53-.12,1.05-.08,1.57.04.51.2.99.49,1.43.29.48.68.81,1.15.99.48.18.97.28,1.48.3.51.02,1.04-.02,1.59-.11.55-.09,1.04-.17,1.48-.25,1.24-.22,2.47-.48,3.68-.8,1.21-.31,2.4-.72,3.57-1.24,2.38-.95,4.65-2.09,6.81-3.41,2.16-1.32,4.32-2.67,6.48-4.07Z"/>
          <path class="cls-1" d="m632.78,211.14c.29-.26.61-.38.93-.38s.61.09.85.28c.24.18.4.44.49.77.09.33.05.66-.14.99-.73,1.32-1.61,2.55-2.64,3.71-1.03,1.15-2.14,2.22-3.35,3.21-1.21.99-2.47,1.89-3.79,2.69-1.32.81-2.66,1.52-4.01,2.14-1.14.51-2.39,1.05-3.76,1.59-1.37.55-2.78.95-4.2,1.21-1.43.26-2.82.28-4.18.05-1.36-.22-2.58-.83-3.68-1.81-1.06-.95-1.76-2.07-2.09-3.35-.33-1.28-.46-2.63-.38-4.04.07-1.41.27-2.82.58-4.23.31-1.41.61-2.7.91-3.87.51-2.2,1.09-4.36,1.73-6.48s1.35-4.23,2.12-6.32c-1.65.07-3.3.16-4.95.25-1.65.09-3.3.21-4.95.36-.33.04-.59-.05-.8-.27-.2-.22-.32-.47-.36-.74-.04-.28,0-.54.14-.8.13-.26.36-.4.69-.44,1.87-.29,3.75-.53,5.63-.71,1.89-.18,3.76-.35,5.63-.49,2.56-6.3,5.59-12.33,9.07-18.08.26-.4.58-.63.96-.69.38-.05.74.01,1.07.19.33.18.57.46.71.83.15.37.09.77-.17,1.21-2.82,5.17-5.29,10.59-7.42,16.26.4,0,.81,0,1.24-.03.42-.02.83-.05,1.24-.08.99-.04,2-.08,3.05-.14,1.04-.06,2.04.03,3,.25.36.07.65.27.85.58.2.31.3.64.3.99s-.09.67-.27.96c-.18.29-.48.48-.88.55-.95.18-1.94.23-2.97.14-1.03-.09-2.05-.14-3.08-.14-.59-.04-1.17-.06-1.76-.06h-1.76c-.73,2.2-1.4,4.4-2,6.6-.61,2.2-1.16,4.41-1.68,6.65-.29,1.25-.58,2.48-.85,3.71-.28,1.23-.45,2.48-.52,3.77-.04.4-.06.83-.06,1.29s.05.91.14,1.35c.09.44.25.84.47,1.21.22.37.53.66.93.88.44.22.91.36,1.4.41.49.05,1.01.05,1.54,0,.53-.06,1.04-.16,1.54-.3.49-.14.96-.28,1.4-.39,1.17-.29,2.29-.64,3.35-1.04,1.06-.4,2.12-.86,3.19-1.37,2.23-1.14,4.26-2.47,6.07-4.01,1.81-1.54,3.64-3.13,5.47-4.78Z"/>
          <path class="cls-1" d="m663.05,210.81c.4-.14.73-.05.99.3s.29.71.11,1.07c-.4.81-.98,1.51-1.73,2.12-.75.6-1.47,1.16-2.17,1.68-1.03.81-2.07,1.59-3.13,2.36-1.06.77-2.14,1.5-3.24,2.2-.99.66-2,1.3-3.02,1.92-1.03.62-2.09,1.18-3.19,1.68-1.1.49-2.22.92-3.35,1.26s-2.29.56-3.46.63c-1.25.11-2.45-.02-3.6-.39-1.15-.37-2.17-.92-3.05-1.68-.88-.75-1.59-1.66-2.14-2.72-.55-1.06-.82-2.25-.82-3.57-.04-.99.08-1.97.36-2.94.28-.97.6-1.93.96-2.89.4-.91.85-1.79,1.35-2.61.49-.83,1.09-1.6,1.79-2.34.59-.58,1.27-1.11,2.06-1.57.79-.46,1.61-.79,2.47-.99s1.72-.26,2.58-.16c.86.09,1.68.41,2.44.96.81.59,1.31,1.26,1.51,2,.2.75.2,1.51,0,2.28-.2.77-.57,1.5-1.1,2.2-.53.69-1.15,1.26-1.84,1.7-1.21.73-2.54,1.11-3.98,1.13-1.45.02-2.77-.3-3.98-.96-.26.62-.47,1.25-.63,1.89-.17.64-.25,1.27-.25,1.9,0,.58.09,1.12.28,1.59.18.48.44.95.77,1.43.07.18.27.41.6.66,0,.11.09.2.28.28.04,0,.08.03.14.08.06.05.1.08.14.08.22.15.39.24.49.28.04.04.07.05.11.05,0,.04.02.06.05.06.18.07.35.13.49.16s.31.07.49.11c.07,0,.13.01.16.03.04.02.09.03.17.03s.15,0,.25.03c.09.02.17.03.25.03h.58c.2,0,.41-.02.63-.05h.47s.17-.04.47-.11l1.21-.22c.44-.11.88-.23,1.32-.36.44-.13.86-.27,1.26-.41,1.87-.62,3.64-1.42,5.3-2.39,1.67-.97,3.3-1.98,4.92-3.05l4.23-2.97c.48-.37.95-.71,1.43-1.05.47-.33,1.01-.58,1.59-.77Zm-20.49-3.74c-.77-.07-1.52.08-2.25.47s-1.36.83-1.87,1.35c-.48.48-.81.9-.99,1.26s-.42.86-.71,1.48c.66.22,1.34.37,2.03.47.7.09,1.37.09,2.03-.03.66-.11,1.26-.33,1.81-.66.55-.33,1.01-.81,1.37-1.43.44-.73.53-1.38.28-1.95-.26-.57-.83-.89-1.7-.96Z"/>
          <path class="cls-1" d="m708.38,210.76c.37-.15.71-.18,1.02-.11.31.07.55.22.71.44.16.22.26.48.28.8.02.31-.08.63-.3.96-.51.66-1.14,1.28-1.87,1.87-.73.59-1.45,1.13-2.14,1.65l-.71.5c-.77.51-1.57,1.02-2.39,1.51-.82.5-1.71.98-2.67,1.46-1.76.92-3.59,1.62-5.49,2.12-1.91.49-3.83.67-5.77.52-.77-.04-1.56-.17-2.36-.41-.81-.24-1.54-.57-2.2-.99-.66-.42-1.22-.94-1.68-1.57-.46-.62-.76-1.38-.91-2.25-.11-.62-.14-1.24-.08-1.87.05-.62.15-1.22.3-1.81l-.99.77c-1.17,1.06-2.47,2.12-3.9,3.16-1.43,1.05-2.86,1.88-4.28,2.5-.62.26-1.31.47-2.06.63s-1.47.25-2.17.25c-.92,0-1.79-.16-2.61-.49-.83-.33-1.55-.86-2.17-1.59-.48-.62-.79-1.38-.93-2.25-.15-.88-.2-1.7-.16-2.47v-.28c.04-.58.08-1.09.14-1.51.05-.42.15-.98.3-1.68.11-.33.3-.56.58-.69.27-.13.55-.16.82-.11.28.05.51.2.71.44s.3.54.3.9v1.29c0,.53.04,1.08.11,1.65.07.57.17,1.1.3,1.59.13.49.32.87.58,1.13.26.18.56.33.91.44.35.11.69.16,1.02.16.84,0,1.7-.19,2.58-.58.88-.39,1.63-.78,2.25-1.18,1.1-.69,2.17-1.48,3.22-2.36,1.04-.88,2.04-1.79,2.99-2.75.62-.62,1.16-1.16,1.62-1.62.46-.46.87-.89,1.24-1.29l.55-.66v.05c.36-.44.76-.87,1.18-1.29.42-.42.91-.69,1.46-.8.47-.11.91-.02,1.29.28.39.29.58.68.58,1.15.04.48-.06.92-.3,1.34-.24.42-.5.82-.8,1.18-.04.15-.08.29-.14.44-.05.15-.1.29-.14.44-.08.29-.16.6-.25.91-.09.31-.17.61-.25.9,0,.07-.02.16-.06.25-.04.09-.06.17-.06.25-.18.73-.36,1.47-.52,2.2s-.19,1.45-.08,2.14c.07.66.33,1.18.77,1.57.44.38.96.67,1.57.85.6.18,1.24.29,1.9.33.66.04,1.24.04,1.76,0,1.65-.11,3.24-.45,4.78-1.02s3-1.25,4.39-2.06c.62-.33,1.26-.72,1.92-1.18.66-.46,1.35-.92,2.09-1.4.44-.26.86-.57,1.26-.94.51-.4,1.02-.75,1.51-1.04.49-.29.98-.55,1.46-.77Z"/>
          <path class="cls-1" d="m741.79,210.98c.26-.18.51-.26.77-.22s.49.14.69.3c.2.16.36.38.47.63.11.26.13.51.06.77-.11.44-.32.92-.63,1.43-.31.51-.65,1.02-1.02,1.51s-.76.96-1.18,1.4c-.42.44-.8.81-1.13,1.1-.77.66-1.57,1.29-2.39,1.89s-1.66,1.2-2.5,1.79c-.77.55-1.59,1.11-2.45,1.68-.86.57-1.76,1.06-2.69,1.48-.93.42-1.9.7-2.89.83-.99.13-1.98,0-2.97-.41-.62-.26-1.18-.61-1.68-1.05-.49-.44-.93-.95-1.29-1.54-.37-.59-.67-1.2-.91-1.84-.24-.64-.41-1.29-.52-1.95-.04-.18-.06-.38-.08-.58s-.03-.39-.03-.58c0-.04,0-.1-.03-.19s-.03-.17-.03-.25c-.04-.07-.06-.16-.06-.25s-.02-.16-.06-.19c0-.04-.04-.16-.11-.39l-.22-.33-.22-.28c-.07,0-.16-.05-.28-.16l-.44-.22-.33-.16s-.11-.07-.22-.11c-.11-.04-.18-.06-.22-.06-1.32-.48-2.68-.83-4.07-1.04-1.39-.22-2.78-.4-4.18-.55-.95-.14-1.88-.33-2.77-.55-.9-.22-1.69-.69-2.39-1.43-.69-.73-1.12-1.56-1.26-2.47-.15-.92-.06-1.83.28-2.75.62-1.72,1.67-3.23,3.13-4.53,1.46-1.3,3.02-2.26,4.67-2.88.84-.29,1.72-.4,2.64-.33.92.07,1.7.46,2.36,1.15.59.62.91,1.37.96,2.23.06.86,0,1.7-.19,2.5-.26,1.06-.62,2.11-1.1,3.13-.48,1.03-1.08,2-1.81,2.91.73.11,1.45.24,2.14.39.69.15,1.39.33,2.09.55,1.17.37,2.25.91,3.24,1.62.99.71,1.63,1.72,1.92,3,.07.26.12.51.14.77s.05.51.08.77v.28l.11.55c.11.48.26.93.44,1.37.18.44.42.84.71,1.21.4.51.87.79,1.4.85.53.05,1.09,0,1.68-.19.73-.18,1.4-.47,2-.85.61-.39,1.2-.78,1.79-1.18.59-.4,1.16-.81,1.73-1.21.57-.4,1.13-.81,1.68-1.21.55-.4,1.13-.87,1.73-1.4.6-.53,1.22-1.09,1.84-1.68.62-.58,1.24-1.14,1.84-1.68.6-.53,1.18-1,1.73-1.4Zm-34.83-5.05c-.15.22-.3.47-.47.74s-.29.56-.38.85c-.09.29-.12.58-.08.85s.18.52.44.74c.51.44,1.13.68,1.84.71.71.04,1.38.09,2,.16.81-.91,1.46-1.87,1.98-2.86.29-.62.59-1.35.91-2.17.31-.82.43-1.6.36-2.33-.07-.37-.23-.6-.47-.69-.24-.09-.5-.11-.8-.06-.29.06-.6.16-.91.33-.31.16-.58.3-.8.41-1.46.84-2.67,1.94-3.63,3.3Z"/>
          <path class="cls-1" d="m772.66,210.81c.26-.11.49-.11.71,0s.38.28.49.49c.11.22.16.46.16.71s-.09.48-.28.66c-.88.95-1.88,1.74-2.99,2.36-1.12.62-2.29,1.18-3.52,1.68-1.23.5-2.46.94-3.71,1.35-1.25.4-2.45.83-3.63,1.26-.84.33-1.67.69-2.47,1.07-.81.39-1.61.78-2.42,1.18.15.84.16,1.76.06,2.75-.18,1.21-.6,2.36-1.24,3.46-.64,1.1-1.55,1.92-2.72,2.47-.7.29-1.42.48-2.17.55-.75.07-1.47-.09-2.17-.49-.62-.37-1.08-.87-1.37-1.51-.29-.64-.4-1.31-.33-2,.04-.77.27-1.47.69-2.12.42-.64.91-1.22,1.48-1.73.57-.51,1.19-.97,1.87-1.37.68-.4,1.33-.79,1.95-1.15,0-.04.02-.05.05-.05-.48-.95-1.14-1.79-2-2.5-.86-.71-1.75-1.33-2.67-1.84-.55-.33-1.14-.62-1.76-.88-.62-.26-1.24-.53-1.84-.83-.61-.29-1.16-.64-1.68-1.04-.51-.4-.93-.92-1.26-1.54-.33-.66-.51-1.37-.55-2.12-.04-.75.05-1.49.25-2.22.2-.73.48-1.45.83-2.14.35-.69.72-1.32,1.13-1.87.33-.44.78-.96,1.35-1.57.57-.6,1.18-1.13,1.84-1.57s1.34-.72,2.03-.85c.69-.13,1.34.08,1.92.63.51.44.82.99.91,1.65.09.66.05,1.34-.11,2.03-.16.7-.41,1.38-.74,2.06-.33.68-.64,1.26-.93,1.73l-.11.22c-.18.29-.41.46-.69.49-.28.04-.52,0-.74-.14s-.38-.32-.47-.58c-.09-.26-.06-.53.08-.82.18-.44.36-.88.52-1.32.16-.44.28-.9.36-1.38.11-.37.16-.77.16-1.21,0-.07,0-.12-.03-.14-.02-.02-.03-.05-.03-.09-.22.15-.35.22-.38.22l-.33.28c-.18.11-.34.23-.47.36-.13.13-.27.27-.41.41-.26.26-.5.52-.74.8-.24.28-.45.58-.63.91-.37.55-.72,1.26-1.07,2.12-.35.86-.41,1.62-.19,2.28.11.29.28.56.52.8.24.24.51.44.83.6.31.16.63.31.96.44.33.13.62.25.88.36,1.65.7,3.21,1.59,4.7,2.69,1.48,1.1,2.65,2.42,3.49,3.96.95-.51,1.91-.98,2.89-1.4.97-.42,1.97-.83,2.99-1.24.95-.33,1.9-.64,2.83-.94.93-.29,1.86-.64,2.77-1.04,1.24-.48,2.43-1.05,3.54-1.73,1.12-.68,2.32-1.22,3.6-1.62Zm-24.72-3.3s.07-.02.11-.05c.04,0,.06,0,.06.03,0,.02-.02.03-.06.03h-.11Zm2.14,19.34c.51-.37.91-.85,1.18-1.45s.43-1.22.47-1.84c-.15.07-.37.22-.66.44-.22.14-.49.32-.8.52-.31.2-.61.41-.91.63-.29.22-.53.47-.71.74-.18.28-.27.58-.27.91,0,.18,0,.31.03.39s.12.13.3.16c.26.04.5,0,.74-.11.24-.11.45-.24.63-.39Z"/>
        </g>
        <path class="cls-1" d="m873.59,210.81c-.59.18-1.12.44-1.59.77-.48.33-.95.68-1.43,1.05l-4.23,2.97c-1.61,1.06-3.25,2.08-4.92,3.05-1.67.97-3.44,1.77-5.3,2.39-.4.15-.82.28-1.26.41-.44.13-.88.25-1.32.36l-1.21.22c-.29.07-.45.11-.47.11h-.47c-.22.04-.43.05-.63.05h-.58c-.07,0-.16,0-.25-.03-.09-.02-.17-.03-.25-.03s-.13,0-.17-.03c-.04-.02-.09-.03-.16-.03-.18-.03-.35-.07-.49-.11s-.31-.09-.49-.16c-.04,0-.05-.02-.05-.06-.04,0-.07-.02-.11-.05-.11-.04-.28-.13-.49-.28-.04,0-.08-.03-.14-.08-.05-.06-.1-.08-.14-.08-.18-.07-.28-.16-.28-.28-.33-.26-.53-.48-.6-.66-.33-.47-.59-.95-.77-1.43-.18-.48-.28-1.01-.28-1.59,0-.62.08-1.26.25-1.9.16-.64.37-1.27.63-1.89,1.21.66,2.54.98,3.98.96,1.45-.02,2.77-.39,3.98-1.13.69-.44,1.31-1.01,1.84-1.7.53-.69.9-1.43,1.1-2.2.2-.77.2-1.53,0-2.28-.2-.75-.71-1.42-1.51-2-.77-.55-1.59-.87-2.44-.96-.86-.09-1.72-.04-2.58.16s-1.68.53-2.47.99c-.79.46-1.47.98-2.06,1.57-.7.73-1.29,1.51-1.79,2.34-.29.48-.53,1.02-.79,1.53-.46.05-.88.21-1.27.53-1.43,1.1-2.91,2.12-4.45,3.05-1.54.93-3.08,1.88-4.62,2.83-.73.48-1.5.95-2.31,1.43-.81.48-1.63.9-2.47,1.26-.84.37-1.7.64-2.58.83-.88.18-1.78.22-2.69.11-.84-.11-1.53-.38-2.06-.8-.53-.42-.95-.92-1.26-1.51-.31-.59-.52-1.24-.63-1.95-.11-.71-.16-1.44-.16-2.17,0-.22,0-.43.03-.63s.05-.41.08-.63v-.11c3.15-2.38,6.12-4.97,8.9-7.77,2.78-2.8,5.31-5.78,7.58-8.93,1.24-1.72,2.41-3.53,3.49-5.44,1.08-1.9,1.93-3.88,2.55-5.93.26-.84.36-1.76.3-2.75-.06-.99-.43-1.83-1.13-2.53-.44-.44-.92-.74-1.43-.91-.51-.16-1.04-.22-1.57-.16-.53.06-1.07.18-1.62.36-.55.18-1.06.39-1.54.6-1.94.88-3.7,2.02-5.28,3.41-1.58,1.39-3,2.93-4.29,4.61-1.28,1.69-2.43,3.47-3.43,5.36-1.01,1.89-1.9,3.78-2.66,5.69-.73,1.79-1.39,3.63-1.98,5.5-.59,1.87-1.06,3.77-1.43,5.71-.11-.11-.21-.23-.3-.36-.09-.13-.19-.26-.3-.41-.66-.95-1.4-1.69-2.23-2.23-.82-.53-1.82-.89-2.99-1.07-2.23-.33-4.45-.1-6.65.69-2.2.79-4.1,1.95-5.71,3.49-.77.73-1.46,1.52-2.06,2.36-.61.84-1.11,1.74-1.51,2.69-.44.99-.79,2.05-1.04,3.19-.26,1.13-.13,2.21.38,3.24.62,1.17,1.44,1.94,2.45,2.31,1.01.37,2.07.49,3.19.38,1.12-.11,2.25-.37,3.41-.8,1.15-.42,2.17-.83,3.05-1.24,1.24-.51,2.45-1.09,3.6-1.73,1.15-.64,2.32-1.31,3.49-2l2.8-1.7c.15,1.32.49,2.56,1.04,3.74.55,1.17,1.41,2.16,2.58,2.97,1.03.73,2.14,1.2,3.35,1.4,1.21.2,2.43.2,3.65,0,1.23-.2,2.44-.53,3.63-.99,1.19-.46,2.28-.98,3.27-1.57,1.06-.62,2.09-1.26,3.08-1.92.99-.66,2.01-1.3,3.08-1.92,1.01-.66,1.99-1.32,2.96-1.98-.05.44-.18.87-.16,1.32,0,1.32.28,2.51.82,3.57.55,1.06,1.26,1.97,2.14,2.72.88.75,1.9,1.31,3.05,1.68,1.15.37,2.35.49,3.6.39,1.17-.07,2.33-.28,3.46-.63s2.25-.77,3.35-1.26c1.1-.49,2.16-1.05,3.19-1.68,1.03-.62,2.03-1.26,3.02-1.92,1.1-.69,2.18-1.43,3.24-2.2,1.06-.77,2.11-1.56,3.13-2.36.7-.51,1.42-1.07,2.17-1.68.75-.61,1.33-1.31,1.73-2.12.18-.37.15-.72-.11-1.07s-.59-.45-.99-.3Zm-25.6-.66c.18-.37.51-.79.99-1.26.51-.51,1.13-.96,1.87-1.35.73-.39,1.48-.54,2.25-.47.88.07,1.45.39,1.7.96.26.57.16,1.22-.28,1.95-.37.62-.82,1.1-1.37,1.43-.55.33-1.15.55-1.81.66-.66.11-1.34.12-2.03.03-.7-.09-1.37-.25-2.03-.47.29-.62.53-1.12.71-1.48Zm-27.22-4.34c.31-.99.63-1.96.96-2.91.59-1.68,1.24-3.37,1.98-5.06.73-1.68,1.58-3.31,2.53-4.89.95-1.57,2.02-3.06,3.21-4.45,1.19-1.39,2.54-2.62,4.04-3.68.62-.44,1.32-.9,2.09-1.38.77-.48,1.54-.81,2.31-.99.11-.03.24-.05.38-.05,0,.04,0,.07.03.08.02.02.03.05.03.08,0,.59-.11,1.21-.33,1.87-.55,1.76-1.26,3.43-2.12,5.03-.86,1.59-1.8,3.14-2.83,4.64-1.87,2.75-3.94,5.29-6.21,7.64s-4.56,4.71-6.87,7.09c.22-1.03.48-2.03.8-3.02Zm-7.94,8.3c-.81.51-1.6,1.01-2.39,1.48-.79.48-1.6.95-2.45,1.43-.81.48-1.63.92-2.47,1.32-.84.4-1.69.81-2.53,1.21-.73.33-1.56.66-2.47.99-.92.33-1.79.44-2.64.33-.92-.11-1.46-.48-1.62-1.1-.16-.62-.13-1.32.11-2.09.24-.77.58-1.53,1.02-2.28.44-.75.81-1.33,1.1-1.73,1.03-1.28,2.27-2.34,3.74-3.19s3.02-1.38,4.67-1.59c.92-.15,1.87-.16,2.86-.05.99.11,1.83.53,2.53,1.26.29.29.55.6.77.91s.47.61.77.91c.11.14.25.28.41.41s.32.28.47.47l-1.87,1.32Z"/>
        <path class="cls-1" d="m1037.03,207.59c-.26-.35-.58-.45-.99-.3-.59.18-1.12.44-1.59.77-.48.33-.95.68-1.43,1.05l-4.23,2.97c-1.61,1.06-3.25,2.08-4.92,3.05-1.67.97-3.44,1.77-5.3,2.39-.41.15-.83.28-1.26.41-.44.13-.88.25-1.32.36l-1.21.22c-.29.07-.45.11-.47.11h-.47c-.22.04-.43.05-.63.05h-.58c-.07,0-.16,0-.25-.03-.09-.02-.18-.03-.25-.03-.08,0-.13,0-.17-.03-.04-.02-.09-.03-.16-.03-.18-.03-.35-.07-.49-.11-.15-.04-.31-.09-.5-.16-.04,0-.05-.02-.05-.06-.04,0-.07-.02-.11-.05-.11-.04-.28-.13-.49-.28-.04,0-.08-.03-.14-.08-.05-.06-.1-.08-.14-.08-.18-.07-.28-.16-.28-.28-.33-.26-.53-.48-.6-.66-.33-.47-.59-.95-.77-1.43-.18-.48-.28-1.01-.28-1.59,0-.62.08-1.26.25-1.9s.37-1.27.63-1.89c1.21.66,2.53.98,3.98.96,1.45-.02,2.77-.39,3.98-1.13.69-.44,1.31-1.01,1.84-1.7.53-.69.9-1.43,1.1-2.2.2-.77.2-1.53,0-2.28-.2-.75-.71-1.42-1.51-2-.77-.55-1.59-.87-2.44-.96-.86-.09-1.72-.04-2.58.16-.86.2-1.68.53-2.47.99-.79.46-1.47.98-2.06,1.57-.7.73-1.29,1.51-1.79,2.34-.3.51-.56,1.07-.83,1.61-.01.01-.03,0-.04.01-.58.35-1.1.75-1.68,1.22-.52.41-1.1.93-1.74,1.39-.87.7-1.74,1.34-2.61,2.03-.93.7-1.86,1.34-2.79,1.86-.99.46-1.97.87-3.02,1.16-1.04.23-2.09.29-3.19.06-1.16-.17-2.26-.52-3.25-1.1-1.04-.52-1.97-1.22-2.9-2.03,1.63-1.57,3.31-3.08,5.11-4.59,1.8-1.45,3.6-2.85,5.34-4.06.23-.23.35-.46.35-.81,0-.29-.12-.58-.29-.81-.12-.29-.35-.46-.64-.64-.29-.12-.58-.12-.87,0-2.09,1.16-4.07,2.5-6.04,3.89-1.92,1.39-3.72,2.9-5.34,4.53-1.86-2.15-3.43-4.47-4.7-6.91-.12-.29-.35-.46-.7-.52-.29-.06-.58-.06-.87.06-.29.12-.47.29-.64.58-.17.23-.17.52-.06.87.58,1.28,1.22,2.67,1.97,4.06.81,1.45,1.68,2.79,2.73,4.12-.41.23-.81.52-1.28.87-.41.35-.81.7-1.28.93-.7.46-1.4.93-2.03,1.39-.7.46-1.34.87-1.97,1.22-1.39.81-2.85,1.45-4.36,2.03-1.57.58-3.13.93-4.82,1.05h-1.74c-.64-.06-1.28-.17-1.86-.35-.64-.17-1.16-.46-1.57-.87-.47-.35-.7-.87-.81-1.57-.12-.7-.06-1.39.12-2.15.17-.7.35-1.45.52-2.15,0-.12,0-.17.06-.29,0-.06.06-.17.06-.23.06-.29.12-.58.23-.93.06-.29.17-.58.23-.87.06-.17.12-.29.12-.46.06-.12.12-.29.17-.41.29-.41.52-.75.81-1.22.23-.41.29-.87.29-1.34s-.23-.87-.58-1.16c-.41-.29-.81-.35-1.28-.23-.58.06-1.04.35-1.45.75-.46.46-.81.81-1.22,1.28l-.52.64-1.28,1.28c-.41.46-.99.99-1.57,1.63-.99.93-1.97,1.86-3.02,2.73-1.05.93-2.09,1.68-3.19,2.38-.64.41-1.39.81-2.27,1.16-.87.41-1.74.58-2.61.58-.29,0-.64-.06-.99-.17-.35-.06-.64-.23-.93-.41-.23-.23-.46-.64-.58-1.1-.12-.52-.23-1.05-.29-1.63-.06-.58-.12-1.1-.12-1.63v-1.34c0-.35-.12-.64-.29-.87-.17-.23-.46-.41-.7-.46-.29-.06-.58,0-.81.12-.29.12-.52.35-.58.7-.03.1-.03.15-.05.25-.15-.01-.29-.09-.47-.03-1.17.4-2.29.89-3.35,1.46-1.06.57-2.13,1.11-3.19,1.62-.99.44-1.98.86-2.97,1.26-.99.4-2,.79-3.02,1.15-1.14.4-2.26.78-3.38,1.13-1.12.35-2.26.69-3.43,1.02-1.17.37-2.34.7-3.52,1.02-1.17.31-2.36.52-3.57.63-.88.07-1.8,0-2.78-.19-.97-.2-1.87-.54-2.69-1.02-.82-.48-1.52-1.09-2.09-1.84-.57-.75-.87-1.64-.91-2.66-.04-.48-.06-.83-.08-1.05-.02-.22,0-.58.08-1.1,1.61-1.76,3.31-3.51,5.11-5.25,1.79-1.74,3.56-3.5,5.3-5.3,1.74-1.79,3.38-3.65,4.92-5.57,1.54-1.93,2.86-3.98,3.96-6.18.48-.92.86-1.85,1.15-2.8.29-.95.48-1.96.55-3.02.04-.48.05-.99.05-1.54s-.04-1.1-.11-1.65c-.07-.55-.2-1.07-.38-1.57-.18-.5-.42-.93-.71-1.29-.44-.51-.93-.87-1.48-1.07-.55-.2-1.13-.28-1.73-.25-.61.04-1.21.16-1.81.39-.61.22-1.15.46-1.62.71-1.03.55-1.94,1.23-2.75,2.03-.81.81-1.56,1.65-2.25,2.53-1.54,1.98-2.93,4.07-4.18,6.26-1.24,2.2-2.36,4.45-3.35,6.76-1.06,2.53-2,5.08-2.83,7.67-.83,2.58-1.44,5.23-1.84,7.94-.22,1.39-.29,2.79-.22,4.2.07,1.41.49,2.74,1.26,3.98.66.99,1.47,1.84,2.44,2.55.97.71,2.04,1.24,3.21,1.57,1.5.4,3.02.55,4.56.44,1.54-.11,3.06-.35,4.56-.71,1.46-.33,2.92-.72,4.37-1.18,1.45-.46,2.88-.91,4.31-1.35,1.32-.44,2.65-.91,3.98-1.4,1.34-.5,2.65-1.02,3.93-1.57,1.39-.59,2.76-1.22,4.12-1.9.9-.45,1.65-1.12,2.42-1.74v.14c-.06.75,0,1.57.17,2.44.12.87.47,1.63.93,2.26.64.75,1.34,1.28,2.15,1.57.81.35,1.68.52,2.61.52.7,0,1.45-.06,2.21-.23.76-.17,1.4-.41,2.03-.64,1.45-.64,2.85-1.45,4.3-2.5,1.39-1.05,2.73-2.09,3.89-3.19l.99-.75c-.12.58-.23,1.22-.29,1.8-.06.64-.06,1.28.06,1.86.17.93.47,1.68.93,2.26.47.64.99,1.16,1.68,1.57.64.46,1.39.75,2.21.99.75.23,1.57.41,2.32.41,1.97.17,3.89,0,5.81-.52,1.86-.46,3.66-1.16,5.4-2.09h.06c.99-.46,1.86-.99,2.67-1.45.81-.52,1.63-.99,2.38-1.51l.75-.52c.7-.46,2.27-1.51,2.96-2.09,1.1,1.05,2.26,1.92,3.6,2.67,1.34.7,2.67,1.22,4.12,1.45.64.12,1.34.17,2.09.17,1.51,0,2.9-.23,4.3-.75,1.4-.46,2.73-1.16,4.01-1.97,1.19-.81,2.43-1.74,3.68-2.71-.03.35-.14.69-.13,1.04,0,1.32.28,2.51.83,3.57.55,1.06,1.26,1.97,2.14,2.72.88.75,1.89,1.31,3.05,1.68,1.15.37,2.35.49,3.6.39,1.17-.07,2.33-.28,3.46-.63,1.13-.35,2.25-.77,3.35-1.26,1.1-.49,2.16-1.05,3.19-1.68,1.02-.62,2.03-1.26,3.02-1.92,1.1-.69,2.18-1.43,3.24-2.2,1.06-.77,2.11-1.56,3.13-2.36.7-.51,1.42-1.07,2.17-1.68.75-.61,1.33-1.31,1.73-2.12.18-.37.15-.72-.11-1.07Zm-26.59-.96c.18-.37.51-.79.99-1.26.51-.51,1.13-.96,1.87-1.35.73-.39,1.49-.54,2.25-.47.88.07,1.45.39,1.7.96.26.57.16,1.22-.28,1.95-.37.62-.83,1.1-1.38,1.43-.55.33-1.15.55-1.81.66-.66.11-1.34.12-2.03.03-.7-.09-1.38-.25-2.03-.47.29-.62.53-1.12.71-1.48Zm-107.04-2.93c.31-1.15.67-2.3,1.07-3.43.77-2.2,1.66-4.34,2.66-6.43,1.01-2.09,2.1-4.14,3.27-6.15.51-.84,1.03-1.66,1.57-2.44.53-.79,1.13-1.55,1.78-2.28.26-.29.56-.61.91-.96.35-.35.72-.67,1.13-.96.4-.29.82-.54,1.26-.74.44-.2.86-.3,1.26-.3.33,0,.58.18.74.55s.28.8.33,1.29c.05.49.08.98.08,1.45v1.1c-.04.84-.2,1.68-.49,2.53-.29.84-.64,1.65-1.04,2.42-.7,1.36-1.46,2.63-2.28,3.82-.82,1.19-1.75,2.37-2.77,3.54-.37.44-.88,1.01-1.54,1.7-.66.69-1.37,1.44-2.14,2.23-.77.79-1.56,1.57-2.36,2.36-.81.79-1.53,1.5-2.17,2.14s-1.16,1.15-1.57,1.54c-.4.39-.61.56-.61.52.29-1.17.6-2.33.91-3.49Z"/>
      </g>
    </g>
  </g>
</svg>