<svg id="Layer_2" data-name="Layer 2" xmlns="http://www.w3.org/2000/svg" viewBox="0 0 83.58 9.31">
  <g id="Layer_1-2" data-name="Layer 1">
    <g>
      <path class="cls-1" d="m1.92,6.09l-1.19,3.22h-.73L3.42,0h.85l3.57,9.31h-.78l-1.21-3.22H1.92Zm3.69-.67c-1.04-2.77-1.57-4.1-1.76-4.72h-.01c-.23.71-.82,2.36-1.66,4.72h3.43Z"/>
      <path class="cls-1" d="m20.21,5.03c0-1.82.01-3.57.05-4.5h-.04c-.37,1.25-2.26,5.84-3.45,8.78h-.7c-.89-2.28-2.85-7.39-3.27-8.8h-.03c.07,1.06.09,3.23.09,4.83v3.97h-.72V0h1.08c1.28,3.19,2.89,7.37,3.23,8.42h.03c.21-.68,2.08-5.32,3.38-8.42h1.06v9.31h-.72v-4.28Z"/>
      <path class="cls-1" d="m28.34,9.31v-3.5c0-.08-.03-.17-.05-.21l-3.33-5.6h.84c.93,1.58,2.55,4.34,2.95,5.03.4-.69,2.04-3.42,3.03-5.03h.8l-3.47,5.66c-.03.05-.04.11-.04.2v3.46h-.73Z"/>
      <path class="cls-1" d="m37.27,4.96v4.35h-.73V0h3.34c1.84,0,2.81.99,2.81,2.45,0,1.18-.7,1.96-1.74,2.18.96.23,1.6.85,1.6,2.43v.36c0,.65-.05,1.53.12,1.89h-.73c-.17-.4-.13-1.14-.13-1.94v-.24c0-1.53-.45-2.17-2.24-2.17h-2.29Zm0-.66h2.25c1.64,0,2.39-.61,2.39-1.84,0-1.14-.74-1.8-2.2-1.8h-2.45v3.63Z"/>
      <path class="cls-1" d="m53.08,4.74h-4.75v3.91h5.2l-.11.66h-5.81V0h5.71v.66h-4.99v3.41h4.75v.67Z"/>
      <path class="cls-1" d="m58.03,0h.72v8.65h5l-.13.66h-5.59V0Z"/>
      <path class="cls-1" d="m67.85,0h.72v8.65h5l-.13.66h-5.59V0Z"/>
      <path class="cls-1" d="m83.13,4.74h-4.75v3.91h5.2l-.11.66h-5.81V0h5.71v.66h-4.99v3.41h4.75v.67Z"/>
    </g>
  </g>
</svg>